<?xml version="1.0" encoding="utf-8"?><svg xml:space="preserve" viewBox="0 0 100 100" y="0" x="0" xmlns="http://www.w3.org/2000/svg" id="圖層_1" version="1.1" width="200px" height="200px" xmlns:xlink="http://www.w3.org/1999/xlink" style="width:100%;height:100%;background-size:initial;background-repeat-y:initial;background-repeat-x:initial;background-position-y:initial;background-position-x:initial;background-origin:initial;background-image:initial;background-color:rgb(241, 242, 243);background-clip:initial;background-attachment:initial;animation-play-state:paused" ><g class="ldl-scale" style="transform-origin:50% 50%;transform:rotate(0deg) scale(0.8, 0.8);animation-play-state:paused" ><g style="animation-play-state:paused" ><path fill="#f47e60" d="M81.2 52.3H18.8c-1.3 0-2.4-1.1-2.4-2.4V35c0-1.3 1.1-2.4 2.4-2.4h62.4c1.3 0 2.4 1.1 2.4 2.4v14.9c0 1.3-1.1 2.4-2.4 2.4z" style="fill:rgb(32, 70, 81);animation-play-state:paused" ></path>
<path fill="#f5e6c8" d="M75.2 88H24.8c-2 0-3.6-1.6-3.6-3.6V52.1h57.7v32.2c0 2.1-1.7 3.7-3.7 3.7z" style="fill:rgb(21, 33, 43);animation-play-state:paused" ></path>
<path d="M40.1 32.6h19.8V88H40.1z" fill="#c33737" style="fill:rgb(36, 112, 116);animation-play-state:paused" ></path></g>
<path stroke-miterlimit="10" stroke-width="5.195" stroke="#c33737" fill="none" d="M44.4 29.9H29c-3.7 0-6.6-3-6.6-6.6v-4c0-5.8 6.4-9.2 11.2-6.1l13.2 8.6c3.7 2.4 2 8.1-2.4 8.1z" style="stroke:rgb(36, 112, 116);animation-play-state:paused" ></path>
<path stroke-miterlimit="10" stroke-width="5.195" stroke="#c33737" fill="none" d="M55.2 29.9h15.4c3.7 0 6.6-3 6.6-6.6v-4c0-5.8-6.4-9.2-11.2-6.1l-13.2 8.6c-3.7 2.4-2 8.1 2.4 8.1z" style="stroke:rgb(36, 112, 116);animation-play-state:paused" ></path>
<metadata xmlns:d="https://loading.io/stock/" style="animation-play-state:paused" ><d:name style="animation-play-state:paused" >gift</d:name>
<d:tags style="animation-play-state:paused" >present,birthday,offering,award,prize,giveaway,gift,web application</d:tags>
<d:license style="animation-play-state:paused" >pro</d:license>
<d:slug style="animation-play-state:paused" >ob8oo</d:slug></metadata></g><!-- generated by https://loading.io/ --></svg>